<?xml version="1.0" encoding="UTF-8" standalone="no"?>
<!DOCTYPE svg PUBLIC "-//W3C//DTD SVG 1.1//EN" "http://www.w3.org/Graphics/SVG/1.1/DTD/svg11.dtd">
<svg width="100%" height="100%" viewBox="0 0 907 153" version="1.1" xmlns="http://www.w3.org/2000/svg" xmlns:xlink="http://www.w3.org/1999/xlink" xml:space="preserve" xmlns:serif="http://www.serif.com/" style="fill-rule:evenodd;clip-rule:evenodd;stroke-linejoin:round;stroke-miterlimit:2;">
    <g transform="matrix(1,0,0,1,-86.898567,-110.165039)">
        <g>
            <g transform="matrix(1.005731,0,0,0.970934,-0.498018,7.411332)">
                <path d="M403,263.225C297.391,263.225 192.283,263.225 86.899,263.225L86.899,254.986L633.764,254.986L633.764,263.225C557.008,263.225 480.254,263.225 403,263.225Z" style="fill:rgb(177,131,30);fill-rule:nonzero;"/>
            </g>
            <g transform="matrix(11.796603,0,0,2.457584,-2753.417554,-909.51289)">
                <path d="M311.067,462.111L317.636,462.111L317.636,455.404L312.626,455.404L312.626,441.667L316.902,441.667L316.902,435.377L312.626,435.377L312.626,422.025L317.636,422.025L317.636,415.318L311.067,415.318L311.067,462.111Z" style="fill-rule:nonzero;"/>
            </g>
            <g transform="matrix(11.66883,0,0,2.457584,-2692.737429,-909.51289)">
                <path d="M296.986,462.111L298.546,462.111L298.546,428.861L298.574,428.861L303.224,462.111L304.699,462.111L304.699,415.318L303.139,415.318L303.139,448.568L303.111,448.568L298.454,415.318L296.986,415.318L296.986,462.111Z" style="fill-rule:nonzero;"/>
            </g>
            <g transform="matrix(11.796603,0,0,2.457584,-2717.261145,-909.51289)">
                <path d="M284.754,462.111L291.324,462.111L291.324,455.404L286.314,455.404L286.314,441.667L290.59,441.667L290.59,435.377L286.314,435.377L286.314,422.025L291.324,422.025L291.324,415.318L284.754,415.318L284.754,462.111Z" style="fill-rule:nonzero;"/>
            </g>
            <g transform="matrix(11.289104,0,0,2.457584,-2566.769823,-909.51289)">
                <path d="M273.306,421.64L275.748,421.64C276.246,421.64 276.627,422.122 276.891,423.084C277.225,424.176 277.396,425.941 277.406,428.38C277.406,430.413 277.262,432.124 276.975,433.515C276.684,435.013 276.246,435.783 275.663,435.826L273.306,435.826L273.306,421.64ZM271.746,462.111L273.306,462.111L273.306,442.117L275.296,442.117L277.42,462.111L279.276,462.111L276.891,441.346C278.199,439.057 278.862,434.735 278.881,428.38C278.852,424.058 278.511,420.731 277.857,418.399C277.316,416.345 276.618,415.318 275.762,415.318L271.746,415.318L271.746,462.111Z" style="fill-rule:nonzero;"/>
            </g>
            <g transform="matrix(11.289104,0,0,2.457584,-2557.041244,-909.51289)">
                <path d="M260.298,421.64L262.74,421.64C263.238,421.64 263.619,422.122 263.883,423.084C264.217,424.176 264.389,425.941 264.398,428.38C264.398,430.413 264.254,432.124 263.967,433.515C263.676,435.013 263.238,435.783 262.655,435.826L260.298,435.826L260.298,421.64ZM258.739,462.111L260.298,462.111L260.298,442.117L262.288,442.117L264.412,462.111L266.268,462.111L263.883,441.346C265.191,439.057 265.854,434.735 265.873,428.38C265.845,424.058 265.503,420.731 264.85,418.399C264.309,416.345 263.61,415.318 262.754,415.318L258.739,415.318L258.739,462.111Z" style="fill-rule:nonzero;"/>
            </g>
            <g transform="matrix(11.796603,0,0,2.457584,-2677.427713,-910.51289)">
                <path d="M246.507,462.111L253.077,462.111L253.077,455.404L248.066,455.404L248.066,441.667L252.343,441.667L252.343,435.377L248.066,435.377L248.066,422.025L253.077,422.025L253.077,415.318L246.507,415.318L246.507,462.111Z" style="fill-rule:nonzero;"/>
            </g>
            <g transform="matrix(12.503952,0,0,2.457584,-2838.953963,-910.51289)">
                <path d="M236.83,462.111L238.396,462.111L238.396,421.64L241.212,421.64L241.212,415.318L234.014,415.318L234.014,421.64L236.83,421.64L236.83,462.111Z" style="fill-rule:nonzero;"/>
            </g>
        </g>
    </g>
</svg>
